<svg width="22" height="22" viewBox="0 0 22 22" fill="none" xmlns="http://www.w3.org/2000/svg">
  <path d="M5.22161 18.7068C5.22161 19.3632 5.29031 19.8385 5.42772 20.1327C5.56514 20.427 5.81705 20.6307 6.18348 20.7438C6.54991 20.8344 7.14536 20.8796 7.96982 20.8796H11.7143C13.0197 20.8796 14.0617 20.4835 14.8404 19.6914C15.619 18.8992 16.1343 17.8014 16.3862 16.3981C16.3862 16.3302 16.4435 16.3076 16.558 16.3302C16.6954 16.3302 16.7641 16.3642 16.7641 16.4321C16.558 18.3107 16.4549 19.8611 16.4549 21.0833C16.4549 21.2644 16.4206 21.4002 16.3519 21.4907C16.2832 21.5586 16.1458 21.5926 15.9396 21.5926H0.0687054C0.0229018 21.5926 0 21.5247 0 21.3889C0 21.2531 0.0229018 21.1852 0.0687054 21.1852C0.938973 21.1852 1.56877 21.1286 1.9581 21.0154C2.37034 20.9023 2.64516 20.6872 2.78257 20.3704C2.91998 20.0309 2.98868 19.5216 2.98868 18.8426V3.12346C2.98868 2.44445 2.91998 1.9465 2.78257 1.62963C2.64516 1.31276 2.37034 1.09774 1.9581 0.984567C1.56877 0.848765 0.938973 0.780864 0.0687054 0.780864C0.0229018 0.780864 0 0.712963 0 0.577161C0 0.441359 0.0229018 0.373458 0.0687054 0.373458L1.75199 0.407408C2.71386 0.452675 3.49252 0.475309 4.08797 0.475309C4.72922 0.475309 5.53078 0.452675 6.49266 0.407408L8.14159 0.373458C8.21029 0.373458 8.24464 0.441359 8.24464 0.577161C8.24464 0.712963 8.21029 0.780864 8.14159 0.780864C7.29422 0.780864 6.66442 0.848765 6.25219 0.984567C5.86286 1.09774 5.58804 1.32407 5.42772 1.66358C5.29031 1.98045 5.22161 2.4784 5.22161 3.15741V18.7068Z" fill="black"/>
</svg>
